<?xml version="1.0" encoding="utf-8"?>
<!-- Generator: Adobe Illustrator 27.0.1, SVG Export Plug-In . SVG Version: 6.00 Build 0)  -->
<svg version="1.1" id="Capa_1" xmlns="http://www.w3.org/2000/svg" xmlns:xlink="http://www.w3.org/1999/xlink" x="0px" y="0px"
	 viewBox="0 0 3710 3710" style="enable-background:new 0 0 3710 3710;" xml:space="preserve">
<style type="text/css">
	.st0{fill:url(#SVGID_1_);}
	.st1{fill:#56878C;}
	.st2{fill:#FFFFFF;}
	.st3{opacity:0.51;fill:#612B05;enable-background:new    ;}
	.st4{fill:#612B05;}
	.st5{fill:#FF830D;}
	.st6{fill:#274F73;}
	.st7{fill:url(#SVGID_00000011731446962015937570000017045272171337424782_);}
	.st8{fill:url(#SVGID_00000093143340625531981340000006250943076362609814_);}
	.st9{fill:url(#SVGID_00000137109160585180388660000001606132063806211221_);}
	.st10{fill:url(#SVGID_00000080891305115912878690000012362080329621247127_);}
	.st11{fill:url(#SVGID_00000094615018847245373500000009163390979300813469_);}
	.st12{fill:url(#SVGID_00000093883032486891197150000017138455910053571216_);}
	.st13{fill:url(#SVGID_00000175290330007800685530000006876129334592903836_);}
	.st14{fill:url(#SVGID_00000139253858404842237690000008572073250360733866_);}
	.st15{fill:url(#SVGID_00000147923818124141615790000017838869224653257389_);}
	.st16{fill:url(#SVGID_00000135673633264732742820000013182290388290234541_);}
	.st17{fill:url(#SVGID_00000047755145642540882580000016564576273849847976_);}
	.st18{fill:url(#SVGID_00000129897810404324574540000017415988883243135619_);}
	.st19{fill:#7D97F4;}
	.st20{fill:url(#SVGID_00000025436116940591723910000012062361505775891112_);}
	.st21{fill:#91B3FA;}
	.st22{fill:#BDD0FB;}
	.st23{fill:url(#SVGID_00000115506048273123236270000008432165401691940509_);}
	.st24{fill:url(#SVGID_00000108297572459705910040000013213664468705531571_);}
	.st25{fill:url(#SVGID_00000176043819447522270440000012813043264269457825_);}
	.st26{fill:url(#SVGID_00000144304354040770985340000007950641424547759254_);}
	.st27{fill:url(#SVGID_00000016756647502531395530000006707842744882744962_);}
	.st28{fill:url(#SVGID_00000059307676990347878530000003898313396239357090_);}
	.st29{fill:#E8690C;}
	.st30{fill:url(#SVGID_00000105415228389266313200000008183361009879528614_);}
	.st31{fill:url(#SVGID_00000021119564750224882380000008652132749818666410_);}
	.st32{fill:url(#SVGID_00000070083812561932867130000011876031266976963772_);}
	.st33{fill:url(#SVGID_00000139991208492852785810000013768002737454608518_);}
	.st34{fill:url(#SVGID_00000034065802408383527700000003543161770235455112_);}
	.st35{fill:url(#SVGID_00000078750964552255844590000010899991015366679687_);}
	.st36{fill:url(#SVGID_00000152963646566685967850000001192984910277042571_);}
	.st37{fill:url(#SVGID_00000060747461821386464810000000159890126645918102_);}
	.st38{fill:url(#SVGID_00000149353710514848162020000005412368548035805862_);}
	.st39{fill:url(#SVGID_00000170258045923214857690000004378795881699758484_);}
	.st40{fill:url(#SVGID_00000046331081738010766860000005941798489595971487_);}
	.st41{fill:url(#SVGID_00000114783978743302753530000013751697265855682467_);}
</style>
<g id="Illustration">
	<g>
		
			<linearGradient id="SVGID_1_" gradientUnits="userSpaceOnUse" x1="3414.8447" y1="90.6245" x2="1367.1458" y2="2300.8396" gradientTransform="matrix(1 0 0 -1 0 3710)">
			<stop  offset="0" style="stop-color:#DAE3FE"/>
			<stop  offset="1" style="stop-color:#E9EFFD"/>
		</linearGradient>
		<path class="st0" d="M3131.6,2359.1c-281.9,656.7-1025.8,938.8-1608.8,890.7c-159.2-13.1-479.4-39.6-729.5-275.3
			c-480.2-452.7-406.2-1398.9,53.4-1955.9c59.2-71.7,469-552.4,1107.5-546c467.5,4.7,795.6,268,835.5,300.8
			c50.4,41.4,161.6,139.9,261.8,296.1C3287,1436.4,3307.7,1948.7,3131.6,2359.1z"/>
		<g>
			<g>
				<path class="st1" d="M2882.6,468.6c0.5-12.3-15.2-17.9-22.7-8.1c-76.2,98.7-251.4,385.6-127.1,818
					c156.1,542.6,73.1,762.9-50.6,909.1c0,0,187.8-89.5,278.9-314.2C3185,1321.5,2873.6,686.7,2882.6,468.6z"/>
				<path class="st2" d="M2842,652.4c-1.4,63.4-1.5,126.8,0.7,190.1c1.9,63.3,5.7,126.5,11.4,189.5c6,63,13.2,125.8,23,188.3
					c9.6,62.5,21.8,124.5,34.3,186.8c12.1,62.3,24.7,124.9,30.9,189.1c6.3,64,5,129.8-8.3,193.3c-3.3,15.8-6.9,31.7-11.5,47.2
					c-4.2,15.6-9.2,31-14.4,46.2c-10.6,30.5-23.2,60.4-37.9,89.2c-29.7,57.6-68.1,110.6-112.3,157.3c-4.6,4.9-12.4,5.1-17.3,0.5
					c-4.8-4.6-5.1-12.1-0.7-17.1l0,0c10.4-11.7,20.7-23.4,30.4-35.6c5-6,9.6-12.2,14.4-18.4c4.6-6.3,9.4-12.4,13.7-18.9
					c17.9-25.5,33.9-52.2,47.9-79.9c28.2-55.3,48.4-115.1,61.1-175.9c6-30.4,9.8-61.3,11.2-92.3c1.4-31,0.4-62.2-2.4-93.3
					c-5.6-62.3-17.5-124.4-29.2-186.8c-11.6-62.4-22.9-125.1-31.5-188.3c-4.4-31.6-8.2-63.2-11.5-94.8c-1.7-15.8-3.1-31.7-4.6-47.5
					c-1.3-15.9-2.5-31.7-3.6-47.6c-4.2-63.5-6.5-127.2-6.7-190.8c0.1-63.6,1.8-127.2,6-190.6c0.1-1.8,1.7-3.2,3.5-3.1
					C2840.7,649.2,2842.1,650.6,2842,652.4z"/>
			</g>
			<g>
				<g>
					<path class="st1" d="M2868,2015.6c7.8,21.4,35,27.8,51.8,12.5c92.8-84.8,333.5-348.4,308.2-781.7
						c-21.3-365.9,1.9-566.3,18.8-656.6c3.6-19.1-19.3-31.6-33.5-18.4C3056.6,717.5,2584.2,1240.2,2868,2015.6z"/>
					<path class="st2" d="M2898.9,2015.7c0.5,0.3,1,0.6,1.5,0.8c4.5,1.9,9.7-0.3,11.6-4.8c2.1-5.2,211.4-521.1,204.8-1031.2
						c-0.1-4.9-4.1-8.8-9-8.8c-4.9,0.1-8.8,4.1-8.8,9c6.6,506.4-201.4,1019-203.4,1024.2C2893.9,2008.8,2895.4,2013.3,2898.9,2015.7
						z"/>
				</g>
			</g>
		</g>
		<g>
			<g>
				<g>
					<rect x="633.1" y="978" class="st3" width="2521" height="1369.2"/>
					<rect x="652.6" y="978" class="st1" width="2478.1" height="1332.4"/>
					<path class="st4" d="M3192.6,900.3H647.3c-17.4,0-33.9,13.6-33.9,32.1v40.3c0,9,4.6,17.6,10.5,23.9c6,6.3,14.7,9.8,23.1,9.7
						l2543.8-25.6c17.3-0.2,29.7-15.2,29.7-33.6v-14.7C3220.5,913.9,3209.9,900.3,3192.6,900.3z"/>
					<path class="st4" d="M3192,2294.1H597.5c-17.7,0-34.6,15.7-34.6,34.3v40.3c0,9,4.7,17.6,10.8,23.9c6.1,6.3,15,9.8,23.5,9.7
						l2593.1-25.6c17.6-0.2,30.3-15.2,30.3-33.6v-14.7C3220.5,2309.8,3209.7,2294.1,3192,2294.1z"/>
				</g>
				<path class="st1" d="M3035.6,1054.9l-2308.6-14.1c-9.7-0.1-20.4,3.9-27.2,11.1c-6.9,7.2-12.1,16.9-12.1,27v1152.3
					c0,21,18.8,38.3,38.9,38.3H3035c20.1,0,37.2-17.3,37.2-38.3V1093C3072.2,1072.1,3055.6,1055.1,3035.6,1054.9z"/>
			</g>
		</g>
		<g>
			<path class="st5" d="M2115.5,1128.4c-159.7-160.1-424.6-154.9-590.3,15.5c-167.7,172.4-167.9,445.4-0.7,604.8
				c148,141.1,376.1,143.8,537,18.8l193.3,188.3l-88.6,96.1l97.8,94.5l87.9-96l127.4,124.1l96-105.9l-126.5-124.2l84.3-92.1
				l-95.7-94.7l-84.9,92.2l-192.2-188.8C2269.5,1495.2,2256.1,1269.4,2115.5,1128.4z M1627.7,1640.4
				c-108.7-104.5-108.4-282.7,0.6-395.6c108.2-112,282-116.5,387.5-11.7c104.5,103.9,104.1,278-0.9,389.7
				C1909,1735.4,1735.4,1744,1627.7,1640.4z"/>
			<path class="st6" d="M1869.5,1474.4c171.8,144.4,429.1,113.1,573.7-65.3c143.1-176.6,125.3-435.3-39.5-581.4
				c-149.7-132.7-373.4-128.4-526.4,2l-243.6-211.2l58.2-10.4l2.5-0.5l47.7-8.5l-6.6-39.7l-0.3-2.1l-5-30.2l-0.2-1.1l-11.8-71.1
				l-58.3,9.9l-0.9,0.1l-39.9,6.8l-2.5,0.4l-125.7,21.2l-91.2,15.4l0,0.2l0.2,0.3l-2.7,100.4l0.9,0.6l-2.9,119.6l0,2.6l-1.1,44.1
				l0,0.6l-0.3,0.7l0.3,0.1l-1.4,57.1l69.8,0.7h1.2l33.9,0.3l2.1,0l40.3,0.4l1.3-49.2l0.1-2.6l1.3-50.5l241.3,207.4
				C1682.5,1116.2,1714.4,1344,1869.5,1474.4z M2314.8,935.5c109.2,96,120.6,267.4,25.7,383.8c-95.6,117.1-264.4,136.2-376.6,41
				c-113.3-96.1-125.5-271.5-26.8-389.4C2034.9,853.8,2204.5,838.6,2314.8,935.5z"/>
		</g>
		<g>
			<g>
				
					<linearGradient id="SVGID_00000138538725900615055970000017244438136192105622_" gradientUnits="userSpaceOnUse" x1="3377.6213" y1="2620.2793" x2="2699.511" y2="1663.5374" gradientTransform="matrix(0.9849 -0.1731 -0.1731 -0.9849 -669.4471 4613.2925)">
					<stop  offset="0" style="stop-color:#09005D"/>
					<stop  offset="1" style="stop-color:#1A0F91"/>
				</linearGradient>
				<path style="fill:url(#SVGID_00000138538725900615055970000017244438136192105622_);" d="M1950.2,1737.8
					c-3.3-3.2-3.1-8.5,0.3-11.5l407-363.1c1.1-1,2.8-1.2,4.2-0.6l0,0c2.4,1.2,2.9,4.4,0.9,6.2L1960.9,1738
					C1957.8,1740.8,1953.1,1740.7,1950.2,1737.8L1950.2,1737.8z"/>
				
					<linearGradient id="SVGID_00000010991215715776681340000000833021999509612183_" gradientUnits="userSpaceOnUse" x1="3316.584" y1="2068.9924" x2="3264.6003" y2="1899.1078" gradientTransform="matrix(-1 0 0 -1 5189.7793 3710)">
					<stop  offset="0" style="stop-color:#FEBBBA"/>
					<stop  offset="1" style="stop-color:#FF928E"/>
				</linearGradient>
				<path style="fill:url(#SVGID_00000010991215715776681340000000833021999509612183_);" d="M1781.7,1755.1
					c0,0,120.5,43.6,177.1,23c2.5-0.9,4.9-2,7.2-3.2c52.7-27.8,59.2-103.2,59.2-103.2l23.7,4.7c0,0,7.7,121.1-75.3,173.2
					c-40.8,25.6-103.7,34.5-200.2,4L1781.7,1755.1z"/>
				
					<linearGradient id="SVGID_00000060717009250468814220000012350695489205527946_" gradientUnits="userSpaceOnUse" x1="2768.042" y1="2115.436" x2="2707.0042" y2="1915.9619" gradientTransform="matrix(1 0 0 -1 -690.2717 3710)">
					<stop  offset="0" style="stop-color:#FEBBBA"/>
					<stop  offset="1" style="stop-color:#FF928E"/>
				</linearGradient>
				<path style="fill:url(#SVGID_00000060717009250468814220000012350695489205527946_);" d="M2026.4,1678.3l-1.2-6.6
					c0,0-4.9-16,8.1-31.8c18.9-22.8,32.7-14.4,32.7-14.4s-1,4.9-0.9,9.2c0.1,3.5,4.2,5.3,6.8,2.9l30.8-28.3c0,0,8.6,45-57.4,75.9
					L2026.4,1678.3z"/>
			</g>
			<path class="st4" d="M1682.2,1598.4c0,0,5,10.1-27.7,25.8c-18.2,8.8-53.7,21.7-58.4,59.5c-2.4,19.5-16.9,35.2-36.3,38.1
				c-48.4,7.4-123,32.6-135,116.6c-9.1,64.2,23.6,88.5,57.9,96.9c25.2,6.2,42,30.7,36.9,56.2c-4.9,24.4,2.4,52.6,44.7,75
				c94.8,50,189.4-118.5,189.4-118.5l19.4-294.2L1682.2,1598.4z"/>
			
				<linearGradient id="SVGID_00000018915261634449541060000003379639052178497727_" gradientUnits="userSpaceOnUse" x1="3752.1187" y1="998.8137" x2="3715.5491" y2="1162.0718" gradientTransform="matrix(-1 0 0 -1 5189.7793 3710)">
				<stop  offset="0" style="stop-color:#09005D"/>
				<stop  offset="1" style="stop-color:#1A0F91"/>
			</linearGradient>
			<path style="fill:url(#SVGID_00000018915261634449541060000003379639052178497727_);" d="M1459.4,2743.3l-3.9,31.9
				c-0.7,6.1-5.5,10.9-11.6,11.6c-10.2,1.2-26.7,2.4-42.8,0.7c-7.1-0.8-11.6-7.9-9.5-14.7c3.9-12.3,11.1-30.9,21.4-41.7h35.4
				C1455.1,2731.1,1460.2,2736.8,1459.4,2743.3z"/>
			
				<linearGradient id="SVGID_00000152978127638492822820000003324796305119529371_" gradientUnits="userSpaceOnUse" x1="-578.6011" y1="680.8817" x2="-480.2729" y2="1830.0917" gradientTransform="matrix(-1 0 0 -1 1169.5691 3710)">
				<stop  offset="0" style="stop-color:#FEBBBA"/>
				<stop  offset="1" style="stop-color:#FF928E"/>
			</linearGradient>
			<path style="fill:url(#SVGID_00000152978127638492822820000003324796305119529371_);" d="M1737,2369l6,35.2
				c0,0-20,202.9-23.6,284.1c-0.6,12.7,2.7,25.3,9.4,36.1l34.8,56.6l-88.5-52.2l-1.8-10.8l14.5-19.9l-19-227.3
				c-1.1-13.4,1.6-26.8,7.9-38.6l18.3-34.4L1737,2369z"/>
			
				<linearGradient id="SVGID_00000078002827918917715440000007381894717747802808_" gradientUnits="userSpaceOnUse" x1="3457.7002" y1="987.16" x2="3509.9424" y2="825.2091" gradientTransform="matrix(-1 0 0 -1 5189.7793 3710)">
				<stop  offset="0" style="stop-color:#09005D"/>
				<stop  offset="1" style="stop-color:#1A0F91"/>
			</linearGradient>
			<path style="fill:url(#SVGID_00000078002827918917715440000007381894717747802808_);" d="M1769.4,2789.2h-28.2
				c-5.3,0-10.3-2.4-13.5-6.6c-8.8-11.4-27.1-33.8-35.8-34.4c-11.8-0.8-10.2,41-10.2,41h-6.6l-8.3-51.9c-2.1-13.1,4.4-26,16.1-32.1
				l0,0c0,0,2.7,19.9,17.2,28.6c14.6,8.8,59.2,40.2,59.2,40.2s5.5-0.8,11.5,0.3C1779.7,2776,1778.5,2789.2,1769.4,2789.2z"/>
			
				<linearGradient id="SVGID_00000020359232834331282190000005822251056454817964_" gradientUnits="userSpaceOnUse" x1="-380.8145" y1="663.782" x2="-282.4605" y2="1813.2958" gradientTransform="matrix(-1 0 0 -1 1169.5691 3710)">
				<stop  offset="0" style="stop-color:#FEBBBA"/>
				<stop  offset="1" style="stop-color:#FF928E"/>
			</linearGradient>
			<path style="fill:url(#SVGID_00000020359232834331282190000005822251056454817964_);" d="M1615.7,2385.7
				c0,0-117.4,222.6-136,273.4c-18.7,50.8-25.2,93.2-25.4,97.2c-0.4,6.3-8.2,12.3-29.7,12.3c-11.1,0-16.5-4.4-19.2-8.8
				c-2.3-3.7-2.4-8.3-0.5-12.1c6.8-13.7,28.3-57.6,36.3-77.6c9.5-23.8,30-131.5,41.3-169s23.9-78.1,72.9-115.5
				C1555.3,2385.7,1588.9,2352.8,1615.7,2385.7z"/>
			<path class="st1" d="M1689.8,2021c30.3-128.3-46.4-200.8-46.4-200.8c38.9-37.3,103.4-58.3,127.3-65.1c5.8-1.7,12.1-0.4,16.8,3.4
				c20.5,16.5,74.7,64.6,66.5,103.7c-5.8,28.2-59.1,169-59.1,169S1745.7,2054.5,1689.8,2021z"/>
			<path class="st6" d="M1622.7,2084.5c12.3-37.1,67.1-63.5,67.1-63.5c55.9,33.6,105.2,10.2,105.2,10.2s11.1,42.2,3.4,81.5
				s-55.5,291.5-55.5,291.5c-75.4,15.3-191.3-15.4-191.3-15.4C1599.6,2303.6,1610.4,2121.6,1622.7,2084.5z"/>
			
				<linearGradient id="SVGID_00000024703918600512852370000015374027136673274548_" gradientUnits="userSpaceOnUse" x1="-589.3933" y1="1813.6604" x2="-570.9226" y2="1948.7871" gradientTransform="matrix(-1 0 0 -1 1169.5691 3710)">
				<stop  offset="0" style="stop-color:#FEBBBA"/>
				<stop  offset="1" style="stop-color:#FF928E"/>
			</linearGradient>
			<path style="fill:url(#SVGID_00000024703918600512852370000015374027136673274548_);" d="M1725,1667.8l-24.6,110.6
				c-2.4,9.7,6.5,8.1,16.4,6.3c16.1-3,36.9-9.3,43.8-21.8c0.7-1.3,1.1-2.7,1.3-4.2l10.6-76.7c0.8-6.1-2.4-12-8.1-14.5l-20.4-9.1
				C1736.1,1654.9,1727,1659.4,1725,1667.8z"/>
			<g>
				
					<linearGradient id="SVGID_00000128470695506664708130000013488848448529531270_" gradientUnits="userSpaceOnUse" x1="-428.8911" y1="2261.657" x2="-267.7267" y2="2548.4756" gradientTransform="matrix(-0.9809 -0.1943 0.1943 -0.9809 931.704 3868.7361)">
					<stop  offset="0" style="stop-color:#FEBBBA"/>
					<stop  offset="1" style="stop-color:#FF928E"/>
				</linearGradient>
				<path style="fill:url(#SVGID_00000128470695506664708130000013488848448529531270_);" d="M1772.1,1567c0,0,26.2,17.7,37.5,62.9
					s-7,61.4-25.8,60.4s-45.9-6.8-69.5-39.2C1690.7,1618.7,1737.8,1545.3,1772.1,1567z"/>
				<path class="st4" d="M1738.1,1632.9c0,0-9.6-64.7,44.1-54.8l10.9,11.3c0,0,26.3-29.6-2.8-52c-29.1-22.4-69.5-16.7-91.8,24.1
					s-30.5,69.4-11.7,94.7s32.8,3.6,32.8,3.6s-8.6-21.9-1.5-31.3c7.1-9.4,16.3,5.5,16.3,5.5L1738.1,1632.9z"/>
				
					<linearGradient id="SVGID_00000007410720779366020940000016508467507677976720_" gradientUnits="userSpaceOnUse" x1="-394.5837" y1="2242.3813" x2="-233.4245" y2="2529.1909" gradientTransform="matrix(-0.9809 -0.1943 0.1943 -0.9809 931.704 3868.7361)">
					<stop  offset="0" style="stop-color:#FEBBBA"/>
					<stop  offset="1" style="stop-color:#FF928E"/>
				</linearGradient>
				<path style="fill:url(#SVGID_00000007410720779366020940000016508467507677976720_);" d="M1730.7,1638.4c0,0-4.7-33.3-21.8-23.8
					s6.1,31.1,15.4,38.4L1730.7,1638.4z"/>
			</g>
			
				<linearGradient id="SVGID_00000000905695287067625170000016941284039353313714_" gradientUnits="userSpaceOnUse" x1="3484.0095" y1="1780.3623" x2="3610.1558" y2="1780.3623" gradientTransform="matrix(-1 0 0 -1 5189.7793 3710)">
				<stop  offset="0" style="stop-color:#FEBBBA"/>
				<stop  offset="1" style="stop-color:#FF928E"/>
			</linearGradient>
			<path style="fill:url(#SVGID_00000000905695287067625170000016941284039353313714_);" d="M1643.1,1822c0,0-52.2,83.6-62.7,146.3
				c-10.4,62.7,88.8,88.8,125.4,52.2l-5.2-26.1c0,0-57.5,10.4-62.7-20.9s47-94,47-94S1669.2,1832.5,1643.1,1822z"/>
			<g>
				
					<linearGradient id="SVGID_00000119119229208133383750000012371451741326533793_" gradientUnits="userSpaceOnUse" x1="2510.5657" y1="1874.9918" x2="2650.2112" y2="1293.1333" gradientTransform="matrix(1 0 0 -1 -719.5211 3710)">
					<stop  offset="0" style="stop-color:#09005D"/>
					<stop  offset="1" style="stop-color:#1A0F91"/>
				</linearGradient>
				<path style="fill:url(#SVGID_00000119119229208133383750000012371451741326533793_);" d="M1686.7,2074.2l59.4-207.4
					c0.7-2.3,2.7-4.1,5.1-4.3c10.8-1.3,41.9-4.8,77.9-7.8c43.4-3.7,93.7-6.6,123.8-4.1c4.3,0.4,6.9,4.9,5,8.7
					c-17.1,34.6-87.5,175.4-122.7,221.6c-1.2,1.5-3,2.4-4.9,2.4l-137.8-1.3C1688.5,2081.9,1685.6,2078.1,1686.7,2074.2z"/>
				<path class="st19" d="M1835.3,1836.7l43.1-7.2c2.3-0.4,4.2,1.8,3.4,4l-4.3,12.9c-0.4,1.1-1.3,1.9-2.5,2.1l-41.4,5.5
					c-2.1,0.3-3.9-1.7-3.4-3.8l2.6-11.3C1833.1,1837.8,1834.1,1836.9,1835.3,1836.7z"/>
				<path class="st19" d="M1803.1,1873.1l3.6-18.5c0.4-1.8,1.9-3.2,3.8-3.4l87-8.8c2.9-0.3,5.3,2.4,4.6,5.2l-5.5,23
					c-0.4,1.8-2.1,3.2-3.9,3.3l-85,4.3C1804.7,1878.3,1802.6,1875.8,1803.1,1873.1z"/>
				
					<linearGradient id="SVGID_00000049219970080301939460000002656047771436223894_" gradientUnits="userSpaceOnUse" x1="2414.8708" y1="1721.0657" x2="2493.981" y2="1721.0657" gradientTransform="matrix(1 0 0 -1 -719.5211 3710)">
					<stop  offset="0" style="stop-color:#FEBBBA"/>
					<stop  offset="1" style="stop-color:#FF928E"/>
				</linearGradient>
				<path style="fill:url(#SVGID_00000049219970080301939460000002656047771436223894_);" d="M1701.1,2024.1c0,0-8.3-34-4.9-46.1
					c3.3-12.1,9.8-27.6,31.3-24.1c21.6,3.4,47,12.5,47,12.5s-1.3,15.7-17.7,10.7l10.2,7.9c0,0-1.4,12.6-15.3,5.9l9.4,10.4
					c0,0-5.9,10.3-16.1,3.7C1734.8,1998.3,1729.9,2028.2,1701.1,2024.1z"/>
			</g>
			<path class="st21" d="M1494.5,1897.7c-1.5,0-3.1-0.7-4.5-1.6c-22.2-14.4-34-44.2-28.7-72.4c3.1-16.9,11.5-31.5,23.6-41.1
				c8.6-6.8,18.8-10.9,28.4-14.6c16.3-6.2,33.2-11.6,50-16.2c1.4-0.4,2.8-0.8,4.2-1.1c9.8-2.6,20-5.3,29.3-9.9
				c11.8-5.9,20.4-14.5,24.2-24.2c2.4-6,3.1-12.7,3.7-19.2c0.8-7.9,1.7-16.1,5.6-23.1c0.1-0.2,0.4-0.3,0.6-0.2
				c0.2,0.1,0.3,0.4,0.2,0.6c-3.9,6.9-4.7,15-5.5,22.8c-0.7,6.5-1.4,13.3-3.8,19.4c-3.9,9.9-12.7,18.7-24.7,24.7
				c-9.3,4.7-19.5,7.4-29.4,10c-1.4,0.4-2.8,0.7-4.2,1.1c-16.8,4.5-33.6,10-49.9,16.2c-9.6,3.6-19.7,7.8-28.2,14.5
				c-11.9,9.4-20.2,23.8-23.3,40.6c-5.2,27.9,6.5,57.3,28.4,71.6c1.6,1.1,4.7,2.3,6.1,0.5c0.1-0.2,0.4-0.2,0.6-0.1
				c0.2,0.1,0.2,0.4,0.1,0.6C1496.6,1897.3,1495.6,1897.7,1494.5,1897.7z"/>
			<path class="st21" d="M1488.8,1871.1c-0.1,0-0.3-0.1-0.3-0.2c-8.5-12.8-13-26.2-12.9-38.8c0.2-14.8,7-28.5,17.9-35.8
				c0.2-0.1,0.4-0.1,0.6,0.1c0.1,0.2,0.1,0.4-0.1,0.6c-10.7,7.2-17.4,20.6-17.5,35.1c-0.1,12.4,4.3,25.7,12.7,38.3
				c0.1,0.2,0.1,0.4-0.1,0.6C1489,1871.1,1488.9,1871.1,1488.8,1871.1z"/>
		</g>
		<g>
			<path class="st6" d="M1102.9,896.9l12.6,114.7c0,0-80.1,158.2-277,165.2c-196.8,7-247-103-247-103l-7.4-165.3L1102.9,896.9z"/>
			<path class="st6" d="M861.6,664.3l343.8,191c17.7,9.8,17.3,35.8-0.8,45.3C1116.8,947,916.1,1056,833,1127.1
				c-8.9,7.6-21.7,8.1-31.1,1.3l-336-244c-15.2-11-13.6-34.5,3-43.5c87.5-47.6,309.5-166,375.7-179.3
				C850.5,660.5,856.5,661.4,861.6,664.3z"/>
			<path class="st6" d="M824.2,859.5c0,0-226,79.9-247.7,105.2c-21.7,25.3-22.3,163-22.3,163c-56.9,103.4-89.7,222.5-52.2,297.6
				c0,0,98.6-130.4,84.2-198.5c-14.4-68.1-19.5-95.8-19.5-95.8s7.6-145.2,20.2-163.3C586.8,967.7,839,871.4,824.2,859.5z"/>
			<path class="st22" d="M1147.9,878.9l-232.5,144.4l-58.1,36.1l-14.5,9l-7.3,4.5c-2.3,1.4-4.7,2.6-7.2,3.5
				c-10.1,3.7-21.8,2.5-31-3.2l-116-72.5c-0.8-0.5-1.9-0.3-2.4,0.5c-0.5,0.8-0.3,1.9,0.5,2.4l115.6,73.3c10.2,6.4,23.4,7.9,34.8,3.8
				c2.8-1,5.6-2.4,8.1-3.9l7.3-4.5l14.6-8.9l58.4-35.7L1151.7,885c1.7-1,2.2-3.2,1.2-4.9C1151.8,878.4,1149.6,877.8,1147.9,878.9
				L1147.9,878.9z"/>
			<path class="st22" d="M553.1,1198l0.3,0.5l0.3,0.6l0.6,1.3l1.2,2.8c0.8,1.9,1.3,3.8,2,5.7l1.6,5.9c0.4,2,0.8,4,1.2,6.1
				c0.5,2,0.6,4.1,0.9,6.1c0.2,2.1,0.5,4.1,0.7,6.2l0.2,6.2c0.1,2.1,0.2,4.2,0.1,6.2l-0.2,6.2c-0.1,2.1-0.1,4.2-0.4,6.2
				c-0.5,4.2-0.9,8.3-1.5,12.5l-2.3,12.4c-0.2,1-0.4,2.1-0.6,3.1l-0.8,3.1l-1.6,6.1c-1.9,8.2-4.9,16.1-7.5,24.1
				c-0.6,2-1.4,4-2.2,5.9l-2.4,5.9c-1.6,3.9-3.1,7.8-4.8,11.7c-3.7,7.6-7.2,15.3-11,22.8l-12.2,22.2l0,0.1c-0.3,0.6-0.1,1.4,0.5,1.7
				c0.6,0.3,1.3,0.1,1.7-0.5l12.8-22.1c4-7.5,7.7-15.2,11.6-22.8c1.8-3.9,3.4-7.8,5.1-11.7l2.5-5.9c0.9-2,1.7-3.9,2.4-5.9
				c2.8-8.1,6.1-16,8.2-24.3l1.8-6.2l0.9-3.1c0.3-1,0.5-2.1,0.7-3.1l2.7-12.6c0.7-4.2,1.2-8.5,1.8-12.8c0.4-2.1,0.4-4.3,0.6-6.4
				l0.4-6.5c0.2-2.2,0.1-4.3,0.1-6.5l-0.1-6.5c-0.1-2.2-0.4-4.3-0.5-6.5c-0.2-2.2-0.3-4.3-0.8-6.5c-0.4-2.2-0.7-4.3-1.1-6.5
				l-1.5-6.4c-0.7-2.1-1.3-4.2-2.1-6.3l-1.2-3.1l-0.7-1.6l-0.4-0.8l-0.5-0.9c-0.9-1.7-3.1-2.4-4.8-1.4c-1.7,0.9-2.4,3.1-1.4,4.8
				c0,0,0,0,0,0L553.1,1198z"/>
			<path class="st22" d="M535.1,1248.4l-1.8,7.9l-2.1,8.8l-4.4,17.5l-8.9,35.1l-18,70.1c-0.3,1,0.4,2.1,1.4,2.4
				c1,0.3,2.1-0.3,2.4-1.3l19.6-69.7l9.7-34.9l4.8-17.5l2.3-8.8l1.1-4.4l0.6-2.2c0.2-0.9,0.4-2,0.5-3c0.3-1.9-1-3.7-2.9-3.9
				c-1.8-0.3-3.5,0.9-3.9,2.6L535.1,1248.4z"/>
		</g>
		<g>
			<g>
				<path class="st4" d="M508.5,2760.4c-7.5,11-37.1,261-41.8,353.3c-0.3,6.2,4.7,11.4,10.9,11.4c5.4,0,10-3.9,10.8-9.2l54.2-347.6
					L508.5,2760.4z"/>
				<path class="st4" d="M746.9,2760.4c7.5,11,37.1,261,41.8,353.3c0.3,6.2-4.7,11.4-10.9,11.4c-5.4,0-10-3.9-10.8-9.2l-54.2-347.6
					L746.9,2760.4z"/>
				<path class="st4" d="M463.6,2740.9l0,2.7c-0.2,19.6,16.7,35.7,37.9,36.1l250.7,4.3c20.8,0.4,38.2-14.7,39.2-34l0.1-2.5
					c1.1-20.1-16-37.1-37.8-37.5l-250.8-4.5C481.5,2705,463.8,2721,463.6,2740.9z"/>
			</g>
			<g>
				<g>
					
						<linearGradient id="SVGID_00000026877167971112808090000014981940341271159227_" gradientUnits="userSpaceOnUse" x1="878.21" y1="606.1399" x2="1059.9991" y2="606.1399" gradientTransform="matrix(1 0 0 -1 0 3710)">
						<stop  offset="0" style="stop-color:#09005D"/>
						<stop  offset="1" style="stop-color:#1A0F91"/>
					</linearGradient>
					<path style="fill:url(#SVGID_00000026877167971112808090000014981940341271159227_);" d="M951.3,3104.6
						c-44.6,0-64.3-3.8-73.1-7.3c1.7,7.3,8.2,13.1,16.5,13.1h157.7c5.3,0,8.7-5.1,7.4-9.7C1041.8,3102.2,1003.6,3104.6,951.3,3104.6
						z"/>
					<path class="st6" d="M1059.7,3100.7c-0.3-0.9-0.6-1.8-1.3-2.7c-12-15.3-36.1-39.4-69-38.9c-48.1,0.7-64.8,5.9-102.2,0.3
						l-8.8,29.2c-0.9,3-0.9,5.9-0.3,8.7c8.8,3.5,28.5,7.3,73.1,7.3C1003.6,3104.6,1041.8,3102.2,1059.7,3100.7z"/>
				</g>
				
					<linearGradient id="SVGID_00000181804520264561148510000008649920503390683799_" gradientUnits="userSpaceOnUse" x1="887.29" y1="660.9278" x2="936.48" y2="660.9278" gradientTransform="matrix(1 0 0 -1 0 3710)">
					<stop  offset="0" style="stop-color:#A22B25"/>
					<stop  offset="1" style="stop-color:#C0423C"/>
				</linearGradient>
				<path style="fill:url(#SVGID_00000181804520264561148510000008649920503390683799_);" d="M898.1,3027.9l-10.8,36.8
					c0,0,24,10.9,45,2.1l4.1-31.9L898.1,3027.9z"/>
				<g>
					
						<linearGradient id="SVGID_00000163781955976340716810000000351693848062874773_" gradientUnits="userSpaceOnUse" x1="1163.33" y1="642.1689" x2="1310.0992" y2="642.1689" gradientTransform="matrix(1 0 0 -1 0 3710)">
						<stop  offset="0" style="stop-color:#09005D"/>
						<stop  offset="1" style="stop-color:#1A0F91"/>
					</linearGradient>
					<path style="fill:url(#SVGID_00000163781955976340716810000000351693848062874773_);" d="M1224.9,3081.4
						c-34.7,27.9-52.5,37.3-61.5,40.1c5.9,4.6,14.6,5,21-0.1l122.9-98.8c4.1-3.3,3.6-9.4-0.3-12.1
						C1293.8,3022.9,1265.6,3048.7,1224.9,3081.4z"/>
					<path class="st6" d="M1306.9,3010.5c-0.8-0.6-1.6-1-2.7-1.3c-18.9-4.4-52.7-7.9-78,13c-37.1,30.6-46.9,45.2-79.5,64.2
						l11.3,28.2c1.2,2.9,3,5.2,5.2,6.9c9.1-2.8,26.8-12.2,61.5-40.1C1265.6,3048.7,1293.8,3022.9,1306.9,3010.5z"/>
				</g>
				
					<linearGradient id="SVGID_00000064319194926041525470000001436447306344588953_" gradientUnits="userSpaceOnUse" x1="1155.1959" y1="1173.6029" x2="1453.7145" y2="1420.4984" gradientTransform="matrix(1 0 0 -1 0 3710)">
					<stop  offset="0" style="stop-color:#09005D"/>
					<stop  offset="1" style="stop-color:#1A0F91"/>
				</linearGradient>
				<path style="fill:url(#SVGID_00000064319194926041525470000001436447306344588953_);" d="M666.7,2608.7
					c0,0,266.8,21.8,321.5,47.6c54.7,25.8-44.7,386.9-44.7,386.9s-14.9,7.2-48.1-3.1c0,0,34-266.5,8.7-324.3l-288.9-47.2
					L666.7,2608.7z"/>
				
					<linearGradient id="SVGID_00000061434387378074350510000013331629607784026026_" gradientUnits="userSpaceOnUse" x1="1120.25" y1="656.785" x2="1178.97" y2="656.785" gradientTransform="matrix(1 0 0 -1 0 3710)">
					<stop  offset="0" style="stop-color:#A22B25"/>
					<stop  offset="1" style="stop-color:#C0423C"/>
				</linearGradient>
				<path style="fill:url(#SVGID_00000061434387378074350510000013331629607784026026_);" d="M1120.2,3035.7
					c2.5,2.3,26.5,50.7,26.5,50.7s26.8-5.8,32.2-22.7l-24.1-43.8L1120.2,3035.7z"/>
				<path class="st6" d="M506,2606.5c0,0-8.7,20.9-8.3,48.7c0.5,38.4,31.4,69.6,69.8,71.6l315.4,14.4c6.7,0.3,12.3,4.9,14,11.4
					c7.4,28.7,43.6,116.7,220.7,292.4c4.7,4.7,12.1,5.5,17.7,1.9l25.2-15.9c2.7-1.7,3.5-5.1,1.9-7.8l-183.6-313.6
					c-9.7-15.9-25.2-27.4-43.2-32l-268.8-68.7L506,2606.5z"/>
				
					<linearGradient id="SVGID_00000080170503074195628150000005896767450938638477_" gradientUnits="userSpaceOnUse" x1="727.9888" y1="1444.269" x2="906.2544" y2="1574.1917" gradientTransform="matrix(1 0 0 -1 0 3710)">
					<stop  offset="0" style="stop-color:#A22B25"/>
					<stop  offset="1" style="stop-color:#C0423C"/>
				</linearGradient>
				<path style="fill:url(#SVGID_00000080170503074195628150000005896767450938638477_);" d="M871.9,2123.6
					c0,0-88.9,52.7-123.3,81.6l71.2,39.7c0,0,38.5-44.4,75.1-63L871.9,2123.6z"/>
				<path class="st29" d="M500.3,2608.7c0,0,85.2,20.8,166.4,0c0,0,113.7-152.9,157.7-194.5c0,0,70.2,110.8,226.4,126.4l8.7-19.5
					c0,0-124.4-57.3-162.7-145.4c-38.3-88.1-53.7-125.6-88.5-148.6c-21.7-14.3-34.7-24.1-41.4-29.4c-3.7-2.9-8.8-3.2-12.8-0.8
					C717.3,2219.4,543.3,2338.6,500.3,2608.7z"/>
				
					<linearGradient id="SVGID_00000058584946429835298010000000893510970686547883_" gradientUnits="userSpaceOnUse" x1="769.4083" y1="1340.7045" x2="828.1064" y2="1340.7045" gradientTransform="matrix(1 0 0 -1 0 3710)">
					<stop  offset="0" style="stop-color:#E1473D"/>
					<stop  offset="1" style="stop-color:#E9605A"/>
				</linearGradient>
				<path style="fill:url(#SVGID_00000058584946429835298010000000893510970686547883_);" d="M819.8,2414.9c-2.5,0-5-1.1-6.6-3.2
					c-27.4-35.7-42.6-75-43.2-76.7c-1.6-4.3,0.5-9.1,4.8-10.7c4.2-1.6,9.1,0.5,10.7,4.8c0.2,0.4,15.1,38.8,40.9,72.5
					c2.8,3.6,2.1,8.9-1.5,11.6C823.3,2414.3,821.6,2414.9,819.8,2414.9z"/>
				
					<linearGradient id="SVGID_00000029032100717824859100000005566475155445175446_" gradientUnits="userSpaceOnUse" x1="1041.41" y1="1200.3297" x2="1177.04" y2="1200.3297" gradientTransform="matrix(1 0 0 -1 0 3710)">
					<stop  offset="0" style="stop-color:#FEBBBA"/>
					<stop  offset="1" style="stop-color:#FF928E"/>
				</linearGradient>
				<path style="fill:url(#SVGID_00000029032100717824859100000005566475155445175446_);" d="M1041.4,2511l17.6-4.7l53.4-12.4
					c6.4-1.5,13.2-0.4,18.8,3.2l45.9,28.9l-126.8-0.2L1041.4,2511z"/>
				<g>
					
						<linearGradient id="SVGID_00000155124068119540346980000010297264843892110977_" gradientUnits="userSpaceOnUse" x1="773.8375" y1="232.045" x2="632.5748" y2="45.1659" gradientTransform="matrix(0.9897 -0.1428 -0.1428 -0.9897 198.3428 2427.0718)">
						<stop  offset="0" style="stop-color:#FEBBBA"/>
						<stop  offset="1" style="stop-color:#FF928E"/>
					</linearGradient>
					<path style="fill:url(#SVGID_00000155124068119540346980000010297264843892110977_);" d="M958.4,2082.1
						c0.3,1.8-24.3,122.5-24.3,122.5l-68.6-15.5l6.3-117.8C871.8,2071.3,953.9,2051.3,958.4,2082.1z"/>
					<path class="st4" d="M887.2,2097.6l-8.2,61.8c-0.1,0.8-0.1,1.6,0,2.4c0.7,4.8,4.3,21.3,20.9,16.6c15.1-4.3,28.9-7.9,38.5-5
						c4.3,1.3,6.9,5.7,6,10.1c-2.2,11-7.7,35.6-15.8,56.2c-1.6,4.2-6.2,6.4-10.5,5.1c-13-3.8-40.2-12.6-60.5-24.7
						c-2.7-1.6-4.4-4.6-4.2-7.8c0.7-15.6,2.5-63,1-76.3c-1.4-12.5-16.7-19.9-23.4-22.6c-2.2-0.9-3.9-2.6-4.8-4.8
						c-3.1-7.7-7.3-25.6,15.2-32.9c4.7-1.5,7.2-6.6,5.5-11.3c-3.3-9.3-4.7-23.4,12.7-31.2c17.7-7.9,30.9,1.5,38,9.2
						c2.9,3.1,7.5,3.6,11.1,1.3c2-1.3,4.7-1.7,7.8,0.3c4.3,2.7,9.9,0.8,12.1-3.7c4.2-8.7,12.9-18,30.2-15
						c30.7,5.3,34.2,39.3,26.1,59.3s-41.1,12.4-57.7,2.3c-12.6-7.6-28.9,0.4-36,4.6C889.1,2092.6,887.6,2094.9,887.2,2097.6z"/>
					
						<linearGradient id="SVGID_00000100353648813966148170000001924937731571273359_" gradientUnits="userSpaceOnUse" x1="566.9385" y1="84.0557" x2="680.2425" y2="200.3025" gradientTransform="matrix(0.9897 -0.1428 -0.1428 -0.9897 198.3428 2427.0718)">
						<stop  offset="0" style="stop-color:#A22B25"/>
						<stop  offset="1" style="stop-color:#C0423C"/>
					</linearGradient>
					<path style="fill:url(#SVGID_00000100353648813966148170000001924937731571273359_);" d="M851.6,2158.3c0,0,12.6-35.4-0.3-44.1
						c-13-8.7-32.2-4.2-28,21.5C828.5,2167.6,851.6,2158.3,851.6,2158.3z"/>
				</g>
			</g>
			<g>
				<g>
					
						<linearGradient id="SVGID_00000035508008786382895280000010317989143204207024_" gradientUnits="userSpaceOnUse" x1="-1889.3098" y1="219.3111" x2="-1776.011" y2="581.867" gradientTransform="matrix(-1.388 -6.860000e-02 6.850000e-02 -1.3855 -1145.3553 4113.4048)">
						<stop  offset="0" style="stop-color:#09005D"/>
						<stop  offset="1" style="stop-color:#1A0F91"/>
					</linearGradient>
					<path style="fill:url(#SVGID_00000035508008786382895280000010317989143204207024_);" d="M992.4,2550.9c0.2,0,0.4,0,0.6,0
						l270.8-0.3c6.7,0,12.1-5.4,12.1-12.1c0-6.7-5.5-12.2-12.1-12.1l-270.8,0.3c-6.7,0-12.1,5.4-12.1,12.1
						C980.9,2545.3,986,2550.6,992.4,2550.9z"/>
				</g>
				<g>
					
						<linearGradient id="SVGID_00000003077612693032772610000012056303082630313641_" gradientUnits="userSpaceOnUse" x1="-3098.0942" y1="6549.4419" x2="-2984.7954" y2="6911.998" gradientTransform="matrix(0.6475 -1.2297 1.2274 0.6463 6559.1157 -3563.2173)">
						<stop  offset="0" style="stop-color:#4F52FF"/>
						<stop  offset="1" style="stop-color:#4042E2"/>
					</linearGradient>
					<path style="fill:url(#SVGID_00000003077612693032772610000012056303082630313641_);" d="M1368.8,2285.7
						c-0.1,0.2-0.2,0.4-0.3,0.6l-113.9,245.7c-2.8,6.1-0.2,13.3,5.9,16.1c6.1,2.8,13.4,0.2,16.1-5.9l113.9-245.7
						c2.8-6.1,0.2-13.3-5.9-16.1C1378.7,2277.6,1371.7,2280,1368.8,2285.7z"/>
				</g>
			</g>
			<g>
				<path class="st4" d="M1113,2564.5c-1.2,4.9-114.2,428.7-142.8,536.1c-3.3,12.4,5.9,24.5,18.6,24.5c8.8,0,16.5-6.1,18.7-14.8
					l125.4-508.6L1113,2564.5z"/>
				<path class="st4" d="M1174.9,2564.5c1.2,4.9,114.2,428.7,142.8,536.1c3.3,12.4-5.9,24.5-18.6,24.5c-8.8,0-16.5-6.1-18.7-14.8
					L1155,2601.8L1174.9,2564.5z"/>
				<path class="st4" d="M1179.6,2550.6h-70.4v56.5c0,8.1,6.5,14.7,14.5,14.7h9.7v126.9c0,6.1,4.9,11.1,11,11.1s11-5,11-11.1v-126.9
					h4.9c10.7,0,19.3-8.7,19.3-19.5L1179.6,2550.6L1179.6,2550.6z"/>
				<path class="st4" d="M936.2,2537h393c5.5,0,10.3,3.8,11.7,9.1l5.5,21.5c2,7.7-3.8,15.3-11.7,15.2l-403.2-2.4
					c-7.8-0.1-13.5-7.5-11.6-15.2l4.8-19.2C925.9,2540.8,930.7,2537,936.2,2537z"/>
			</g>
		</g>
		<g>
			<g>
				<rect x="2902.1" y="2886.2" class="st4" width="28.2" height="304.5"/>
				<path class="st4" d="M3039.5,3196.6h-246.6v-15.9c0-1.4,1.1-2.4,2.4-2.4H3037c1.4,0,2.4,1.1,2.4,2.4L3039.5,3196.6
					L3039.5,3196.6z"/>
				<path class="st4" d="M3076.1,2875.7c0,16.6-13.6,30.3-30.3,30.3h-249.5c-16.6,0-30.3-13.6-30.3-30.3v-27.4
					c0-16.6,13.6-30.3,30.3-30.3h249.5c16.6,0,30.3,13.6,30.3,30.3V2875.7z"/>
			</g>
			<g>
				
					<linearGradient id="SVGID_00000090282298675503856030000009673574178811631242_" gradientUnits="userSpaceOnUse" x1="2871.8621" y1="460.5946" x2="2755.1487" y2="691.7775" gradientTransform="matrix(1 0 0 -1 0 3710)">
					<stop  offset="0" style="stop-color:#FEBBBA"/>
					<stop  offset="1" style="stop-color:#FF928E"/>
				</linearGradient>
				<path style="fill:url(#SVGID_00000090282298675503856030000009673574178811631242_);" d="M2708.3,2683.2c0,0-41.8,6.5-88.9,37.9
					c-7.4,4.9-11.5,13.6-10.4,22.4c5.6,44.6,28.8,189,105.2,330.1c4,7.4,5.2,16.1,3.4,24.4l-13.3,61.7l-24.6,23.1h63.4l42.2-114.2
					l-18-5.7c-14-4.4-23.6-17.3-23.8-32l-2.1-122.5c1.8-54.6-33.5-92.2-33.5-92.2l101.2-4.9L2708.3,2683.2z"/>
				<path class="st6" d="M2655.1,3193.9c-5.8,7.6,62.1,17.5,96.4,1c0,0,47.6-82.7,47.6-125.3c0,0-3.8-8.7-31.7-6.7
					c0,0-16,97.9-32.8,108.9s-47.2,1.1-47.2,1.1S2663.6,3182.8,2655.1,3193.9z"/>
				
					<linearGradient id="SVGID_00000075146364850388510380000016806888086210496703_" gradientUnits="userSpaceOnUse" x1="2702.0078" y1="926.8811" x2="2443.8909" y2="442.071" gradientTransform="matrix(1 0 0 -1 0 3710)">
					<stop  offset="0" style="stop-color:#FEBBBA"/>
					<stop  offset="1" style="stop-color:#FF928E"/>
				</linearGradient>
				<path style="fill:url(#SVGID_00000075146364850388510380000016806888086210496703_);" d="M2796.3,2818c-0.5-0.9-109-13-109-13
					s3.6,33-7.5,78.4c-11.1,45.4-170.3,242-170.3,242l16.7,52.9c-51.6,18-102.4,20.9-152.3,9.2l103.4-62.1
					c0,0,96.8-329.9,156.1-388.8l108.7-37.6L2796.3,2818z"/>
				<path class="st6" d="M3039.5,2626.1c0,0,62.5,92.9,67.6,135.3c5.1,42.4-17.1,59.6-82.7,62.4c-65.6,2.8-240.5,2.8-240.5,2.8
					L2634.5,2699c0,0,108.8-38.8,137.1-49.8C2800,2638.2,3039.5,2626.1,3039.5,2626.1z"/>
				<path class="st6" d="M2519.9,3160.4c0,0,18,17.4,5.8,36.8c0,0-142.4,25.2-181,13.8c0,0,8-18.3,51.6-39.2l-3.2,2.5
					c-4.1,3.1-1.7,9.6,3.4,9.3C2425.2,3182,2484.5,3176.7,2519.9,3160.4z"/>
			</g>
			<g>
				<path class="st29" d="M2870.5,2613.8c0,0-72.8-69.3-108.6-115.1c-19.4-24.8-25.4-57.4-16.5-87.6c16.4-55.1,45.4-112.1,48.1-121
					c4.1-13.6,85.6-13,85.6-13s160.5,104.2,223.6,280.6l-70.8,22.1c0,0-41.9-70.3-83.3-115c0,0,71.6,94.7,74.2,133.4L2870.5,2613.8z
					"/>
				
					<linearGradient id="SVGID_00000064316543862604143010000014571856411510790054_" gradientUnits="userSpaceOnUse" x1="4544.6484" y1="1343.0941" x2="4523.5186" y2="1478.6771" gradientTransform="matrix(1 0 0 -1 -1696.288 3710)">
					<stop  offset="0" style="stop-color:#FEBBBA"/>
					<stop  offset="1" style="stop-color:#FF928E"/>
				</linearGradient>
				<path style="fill:url(#SVGID_00000064316543862604143010000014571856411510790054_);" d="M2783.7,2213.9
					c0.9,2.8,22.1,73.4,23.8,74.9c1.7,1.5,46.7,3.9,67.9-10.6l-36-75.3L2783.7,2213.9z"/>
				
					<linearGradient id="SVGID_00000176726867660131176760000004912044425484901280_" gradientUnits="userSpaceOnUse" x1="4453.3257" y1="1598.6157" x2="4639.9731" y2="1471.8368" gradientTransform="matrix(1 0 0 -1 -1696.288 3710)">
					<stop  offset="0" style="stop-color:#FEBBBA"/>
					<stop  offset="1" style="stop-color:#FF928E"/>
				</linearGradient>
				<path style="fill:url(#SVGID_00000176726867660131176760000004912044425484901280_);" d="M2818.7,2065.7
					c0,0-38.4,16.2-64.6,71.8c-26.1,55.5-6.6,81.2,17.9,84.7c24.5,3.5,61.2,3,99.9-32.9C2910.7,2153.4,2868.6,2046.4,2818.7,2065.7z
					"/>
				<path class="st4" d="M2845.9,2159.6c0,0,29-81.3-43-82.2l-16.9,11.9c0,0-26.4-45.1,16.9-66.6c43.4-21.5,108.1-2.4,126.6,56.1
					c18.5,58.4,7.7,96.2-23.1,124.2s-43.4-3.7-43.4-3.7s16.7-26.2,9.9-40.1s-22.5,2.9-22.5,2.9L2845.9,2159.6z"/>
				
					<linearGradient id="SVGID_00000075854235229570111860000008509869135702760083_" gradientUnits="userSpaceOnUse" x1="4464.5112" y1="1615.0837" x2="4651.1587" y2="1488.3044" gradientTransform="matrix(1 0 0 -1 -1696.288 3710)">
					<stop  offset="0" style="stop-color:#FEBBBA"/>
					<stop  offset="1" style="stop-color:#FF928E"/>
				</linearGradient>
				<path style="fill:url(#SVGID_00000075854235229570111860000008509869135702760083_);" d="M2853.9,2168.6
					c0,0,14.7-41.9,34.2-25.2c19.6,16.7-15.9,38.7-29.8,45.8L2853.9,2168.6z"/>
				
					<linearGradient id="SVGID_00000116949567886806842050000009220084484051890613_" gradientUnits="userSpaceOnUse" x1="4665.9585" y1="1108.3336" x2="5062.7852" y2="1108.3336" gradientTransform="matrix(1 0 0 -1 -1696.288 3710)">
					<stop  offset="0" style="stop-color:#FEBBBA"/>
					<stop  offset="1" style="stop-color:#FF928E"/>
				</linearGradient>
				<path style="fill:url(#SVGID_00000116949567886806842050000009220084484051890613_);" d="M2722.3,2618.9l53.4-51.5l73.9,31.2
					c0,0,73.6,11.4,115.7,0c42.1-11.4,42.1-11.4,42.1-11.4l95.2-29.6l14.9,42.2c3.8,10.7,0,22.6-9.3,29.2c-8.2,5.9-17.9,12.3-24,15
					c-12.5,5.5-309-3.8-309-3.8L2722.3,2618.9z"/>
				<path class="st4" d="M2923.8,2087.9c-9.3-9.5-3.2-25.4,9.8-27.5c42.2-6.6,106.6,0.1,133.7,90.5
					c30.5,101.8,50.3,152.8,70.6,161.7c13.4,5.9,14.2,24.4,0.9,30.4c-9.9,4.4-23.9,6-44.1,1.6
					C2939.1,2310.4,2978.1,2143.4,2923.8,2087.9z"/>
			</g>
			<g>
				<path class="st5" d="M2924.6,2643.2c-0.2,0-0.5,0-0.7,0l-310.1-0.3c-7.7,0-13.9-6.2-13.9-13.9c0-7.7,6.2-14,13.9-13.9l310.1,0.3
					c7.7,0,13.9,6.2,13.9,13.9C2937.8,2636.8,2931.9,2642.8,2924.6,2643.2z"/>
				<path class="st5" d="M2335.1,2361.7h258.2c19.1,0,36.4,11,44.5,28.2l119.4,253.1h-320.9c-12.3,0-23.3-7.5-27.8-18.9l-92.6-234.2
					C2310.6,2376.3,2320.6,2361.7,2335.1,2361.7z"/>
				<path class="st21" d="M2517,2491.5c5.6,17.4,1.5,34.3-9.2,37.7s-23.9-7.9-29.5-25.2s-1.5-34.3,9.2-37.7
					C2498.2,2462.8,2511.4,2474.1,2517,2491.5z"/>
			</g>
			<g>
				<path class="st4" d="M3254.4,2654.5c0.5-3.5-0.2-7.1-2-9.9c-1.8-2.8-4.5-4.4-7.4-4.4h-966.3c-3.8,0-7.2,2.4-9.3,6.4
					c-2,4-2.3,8.9-0.7,13.2l10.5,28.4c2.4,6.5,7.6,10.7,13.3,10.7h945.8c5.3,0,9.9-4.7,10.9-11.3L3254.4,2654.5z"/>
				<g>
					<path class="st4" d="M2355,3254c-1.5,0-3-0.3-4.5-0.9c-5.8-2.5-8.4-9.4-5.9-15.3l238.1-566.4c2.5-5.9,9.1-8.6,14.9-6.1
						c5.8,2.5,8.4,9.4,5.9,15.3L2365.4,3247C2363.6,3251.4,2359.4,3254,2355,3254z"/>
					<path class="st4" d="M2623.2,3254c-4.4,0-8.6-2.6-10.4-7l-238.1-566.4c-2.5-5.9,0.2-12.7,5.9-15.3c5.8-2.5,12.4,0.2,14.9,6.1
						l238.1,566.4c2.5,5.9-0.2,12.7-5.9,15.3C2626.2,3253.7,2624.7,3254,2623.2,3254z"/>
					<path class="st4" d="M2927.2,3254c-1.5,0-3-0.3-4.5-0.9c-5.8-2.5-8.4-9.4-5.9-15.3l238.1-566.4c2.5-5.9,9.1-8.6,14.9-6.1
						c5.8,2.5,8.4,9.4,5.9,15.3L2937.7,3247C2935.8,3251.4,2931.6,3254,2927.2,3254z"/>
					<path class="st4" d="M3195.5,3254c-4.4,0-8.6-2.6-10.4-7l-238.1-566.4c-2.5-5.9,0.2-12.7,5.9-15.3c5.8-2.5,12.4,0.2,14.9,6.1
						l238.1,566.4c2.5,5.9-0.2,12.7-5.9,15.3C3198.5,3253.7,3197,3254,3195.5,3254z"/>
				</g>
			</g>
		</g>
	</g>
</g>
</svg>
