<?xml version="1.0" encoding="utf-8"?>
<!-- Generator: Adobe Illustrator 27.0.0, SVG Export Plug-In . SVG Version: 6.00 Build 0)  -->
<svg version="1.1" xmlns="http://www.w3.org/2000/svg" xmlns:xlink="http://www.w3.org/1999/xlink" x="0px" y="0px"
	 viewBox="0 0 227.4 199.2" style="enable-background:new 0 0 227.4 199.2;" xml:space="preserve">
<style type="text/css">
	.st0{fill:#E8690C;}
	.st1{fill:#274F73;}
	.st2{fill:none;stroke:#E8690C;stroke-width:3;stroke-linecap:round;stroke-miterlimit:10;}
</style>
<g id="BACKGROUND">
</g>
<g id="OBJECTS">
	<g id="Logo">
		<path id="BG" class="st0" d="M196.8,78c0,47.6-42.6,94.3-97.4,94.3C44.5,172.3,0,133.7,0,86.2C0,38.6,44.5,0.6,99.3,0
			C159.7-0.7,196.8,30.4,196.8,78z"/>
		<g id="cerebro">
			<ellipse class="st1" cx="76" cy="116.9" rx="45" ry="43.8"/>
			<ellipse class="st1" cx="129.5" cy="91.3" rx="42.6" ry="45"/>
			<ellipse class="st1" cx="162" cy="94.3" rx="41.1" ry="36.5"/>
			<ellipse class="st1" cx="63.5" cy="106.9" rx="42.2" ry="41.1"/>
			<ellipse class="st1" cx="91.1" cy="79.6" rx="39.9" ry="42.2"/>
			<ellipse class="st1" cx="136.2" cy="74.1" rx="41.1" ry="36.5"/>
			
				<ellipse transform="matrix(9.977400e-02 -0.995 0.995 9.977400e-02 -10.4244 291.3074)" class="st1" cx="155.8" cy="151.4" rx="37.7" ry="38.8"/>
			
				<ellipse transform="matrix(9.980371e-02 -0.995 0.995 9.980371e-02 42.9887 289.4069)" class="st1" cx="181.4" cy="120.9" rx="37.7" ry="38.8"/>
			<path class="st1" d="M140.7,159.9c2.4-23.8-13.9-45-36.5-47.2c-22.5-2.3-42.7,15.2-45.1,39c-2.4,23.8,13.9,45,36.5,47.2
				C118.1,201.2,138.3,183.7,140.7,159.9z"/>
			<path class="st1" d="M103,146.7c1.8-18.4-13.5-35.1-34.2-37.1c-20.7-2.1-39,11.2-40.9,29.6c-1.8,18.4,13.5,35.1,34.2,37.1
				C82.9,178.4,101.2,165.2,103,146.7z"/>
			<path class="st1" d="M200,126.9l27.4,59.9l-70.8-25.6C156.6,161.2,172.1,114.8,200,126.9z"/>
		</g>
		<g id="Contornos">
			<path class="st2" d="M201.6,88.8c-3.2-1.2-5.7-2.1-11.6-2.1c-3.3,0-6.4,0.6-9.3,1.7c-3.8-14.1-16.5-24.5-31.6-24.5
				c-9.5,0-18.1,4.1-24.1,10.7c-6.4-4.6-14.4-7.3-23-7.3c-20.1,0-36.6,14.8-38.4,33.7c-17,1.3-29.8,13.7-33.4,28.6"/>
			<path class="st2" d="M63.5,100.9c0,0,22-2.9,33.3,13.1"/>
			<path class="st2" d="M124.9,74.6c0,0-7.4,7.2-6.4,17.7"/>
			<path class="st2" d="M141.1,118.7c4.3-9.4,13.8-15.8,24.7-15.8c10.1,0,19,5.5,23.6,13.7"/>
			<path class="st2" d="M169.9,101.8c0,0,2-9.9,12.9-13.9"/>
			<path class="st2" d="M63.4,175c-2.8-4.1-6-23.7,4.2-35.2"/>
			<path class="st2" d="M132.2,180.2c0,0,3.1-7.8,2.3-13.8"/>
			<path class="st2" d="M189.1,171.3c0,0,2.4-5,3.1-9.8"/>
			<path class="st2" d="M103.9,147.4c5.2-7.2,13.7-11.8,23.2-11.8c11.9,0,22.1,7.2,26.5,17.6"/>
			<path class="st2" d="M114.5,138.6c0,0,9.6-8,4.2-21.3"/>
		</g>
	</g>
</g>
</svg>
